<svg xmlns="http://www.w3.org/2000/svg" viewBox="0 0 960 540" role="img" aria-label="NextWatch proje önizlemesi">
  <defs>
    <linearGradient id="bg" x1="0" y1="0" x2="1" y2="1">
      <stop offset="0" stop-color="#111827"/>
      <stop offset="0.48" stop-color="#312e81"/>
      <stop offset="1" stop-color="#020617"/>
    </linearGradient>
    <linearGradient id="poster" x1="0" y1="0" x2="1" y2="1">
      <stop offset="0" stop-color="#a78bfa"/>
      <stop offset="1" stop-color="#7c3aed"/>
    </linearGradient>
    <filter id="shadow" x="-20%" y="-20%" width="140%" height="140%">
      <feDropShadow dx="0" dy="22" stdDeviation="24" flood-color="#000000" flood-opacity="0.45"/>
    </filter>
  </defs>
  <rect width="960" height="540" rx="34" fill="url(#bg)"/>
  <circle cx="820" cy="80" r="160" fill="#a78bfa" opacity="0.16"/>
  <circle cx="130" cy="460" r="190" fill="#7c3aed" opacity="0.12"/>
  <g filter="url(#shadow)">
    <rect x="72" y="66" width="816" height="408" rx="28" fill="#0f172a" opacity="0.92"/>
    <rect x="108" y="104" width="232" height="318" rx="20" fill="url(#poster)"/>
    <rect x="136" y="135" width="176" height="18" rx="9" fill="#ffffff" opacity="0.55"/>
    <rect x="136" y="174" width="118" height="118" rx="59" fill="#ffffff" opacity="0.18"/>
    <polygon points="209,210 209,256 249,233" fill="#ffffff" opacity="0.7"/>
    <rect x="390" y="114" width="220" height="18" rx="9" fill="#a78bfa"/>
    <text x="390" y="194" fill="#f8fafc" font-family="Inter, Arial, sans-serif" font-size="54" font-weight="800">NextWatch</text>
    <text x="390" y="238" fill="#cbd5e1" font-family="Inter, Arial, sans-serif" font-size="24" font-weight="500">Film &amp; Dizi Keşif Platformu</text>
    <rect x="390" y="282" width="398" height="14" rx="7" fill="#94a3b8" opacity="0.55"/>
    <rect x="390" y="314" width="330" height="14" rx="7" fill="#94a3b8" opacity="0.42"/>
    <rect x="390" y="360" width="118" height="42" rx="14" fill="#a78bfa"/>
    <text x="420" y="388" fill="#070b14" font-family="Inter, Arial, sans-serif" font-size="16" font-weight="800">Explore</text>
  </g>
</svg>
